<svg xmlns="http://www.w3.org/2000/svg" version="1.1" xmlns:xlink="http://www.w3.org/1999/xlink" xmlns:svgjs="http://svgjs.com/svgjs" width="512" height="512" x="0" y="0" viewBox="0 0 48 48" style="enable-background:new 0 0 512 512" xml:space="preserve"><g><g id="message"><rect fill="#F0AB00" height="28.67" rx="4.82" width="44" x="2" y="10.23" data-original="#f0ab00"></rect><path d="m41.18 10.23h-34.36a4.82 4.82 0 0 0 -4.82 4.82v.16a1 1 0 0 0 .47.85l21 13a1 1 0 0 0 .53.15 1 1 0 0 0 .52-.15l21-13a1 1 0 0 0 .48-.85v-.14a4.82 4.82 0 0 0 -4.82-4.84z" fill="#F5C12E" data-original="#f5c12e"></path></g></g></svg>