<?xml version="1.0" encoding="utf-8"?>
<!-- Generator: Adobe Illustrator 26.0.1, SVG Export Plug-In . SVG Version: 6.00 Build 0)  -->
<svg version="1.1" id="Layer_1" xmlns:svgjs="http://svgjs.com/svgjs"
	 xmlns="http://www.w3.org/2000/svg" xmlns:xlink="http://www.w3.org/1999/xlink" x="0px" y="0px" viewBox="0 0 512 512"
	 style="enable-background:new 0 0 512 512;" xml:space="preserve">
<style type="text/css">
	.st0{fill:#FFD93B;}
	.st1{fill:#3E4347;}
	.st2{fill:#FFFFFF;}
	.st3{fill:#E24B4B;}
</style>
<g>
	<circle class="st0" cx="256" cy="256" r="256"/>
	<path class="st1" d="M417,338c-26.4,62.9-88.5,107.1-161,107.1c-72.5,0-134.4-44.2-160.9-107.1c-5.4-12.7,4.2-26.6,18.1-25.8
		c95,6,190.2,6,285.6,0C412.7,311.4,422.2,325.3,417,338z"/>
	<ellipse class="st2" cx="150.5" cy="185.5" rx="93" ry="93"/>
	<path class="st1" d="M217,179.6c0,26.1-21.1,47.2-47.2,47c-25.9,0-47-21-47-47c0-25.9,21.1-47,47.2-47
		C195.9,132.6,217,153.7,217,179.6z"/>
	<g>
		<path class="st2" d="M197,170.7c-3.2,3.4-9.9,1.8-14.9-3.4c-5-5-6.6-11.5-3.4-14.9c3.4-3.2,9.9-1.6,14.9,3.4
			C198.8,160.8,200.4,167.5,197,170.7z"/>
		<ellipse class="st2" cx="361.5" cy="185.5" rx="93" ry="93"/>
	</g>
	<path class="st1" d="M290.4,179.6c0,26.1,21.1,47.2,47.2,47c25.9,0,47-21,47-47c0-25.9-21.1-47-47.2-47
		C311.5,132.6,290.4,153.7,290.4,179.6z"/>
	<g>
		<path class="st2" d="M310.4,170.7c3.2,3.4,9.9,1.8,14.9-3.4c5-5,6.6-11.5,3.4-14.9c-3.4-3.2-9.9-1.6-14.9,3.4
			C308.6,160.8,307,167.5,310.4,170.7z"/>
		<path class="st2" d="M113.2,312.2c-1.1-0.1-2.2,0.1-3.2,0.2c29.7,40.2,83.9,42.4,146,42.4s116.3-2.2,146-42.4
			c-1.1-0.1-2.1-0.3-3.3-0.2C303.4,318.2,208.2,318.2,113.2,312.2z"/>
	</g>
	<path class="st3" d="M256,445.1c26.6,0,51.8-6,74.4-16.7c-1.1-18.6-8.6-35.4-21-48c-9.9-9.9-25-13.6-38.1-8.7
		c-12,4.3-25,6.5-39.1,6.6c-24,0-44.9,17.6-49.2,41.1c-0.5,3-0.7,6.1-0.8,9.2C204.5,439.1,229.5,445.1,256,445.1z"/>
</g>
</svg>
