<?xml version="1.0" encoding="utf-8"?>
<!-- Generator: Adobe Illustrator 26.0.1, SVG Export Plug-In . SVG Version: 6.00 Build 0)  -->
<svg version="1.1" id="Layer_1" xmlns:svgjs="http://svgjs.com/svgjs"
	 xmlns="http://www.w3.org/2000/svg" xmlns:xlink="http://www.w3.org/1999/xlink" x="0px" y="0px" viewBox="0 0 512.1 272.7"
	 style="enable-background:new 0 0 512.1 272.7;" xml:space="preserve">
<style type="text/css">
	.st0{fill:#6B717F;}
	.st1{fill:#585D69;}
	.st2{fill:#7A8191;}
	.st3{fill:#FFC93B;}
</style>
<g>
	<path class="st0" d="M94.2,80.8h323.6c8.1,0,14.6,6.5,14.6,14.6v101.5c0,21.5-13.2,40.8-33.2,48.7c-92,36.1-194.3,36.1-286.4,0
		c-20-7.8-33.2-27.2-33.2-48.7V95.4C79.7,87.4,86.2,80.8,94.2,80.8L94.2,80.8z"/>
	<path class="st1" d="M512,69.7c0.1-1.6-0.9-3.3-2.8-3.8l-232-63c-13.9-3.8-28.6-3.8-42.5,0L2.8,65.8C0.9,66.4,0,68,0,69.7v31.8
		c-0.1,1.6,0.9,3.3,2.8,3.8l232,63c13.9,3.8,28.6,3.8,42.5,0l231.9-62.9c1.9-0.5,2.9-2.2,2.8-3.8L512,69.7L512,69.7z"/>
	<path class="st2" d="M234.9,2.9L2.8,65.8c-3.8,1-3.8,6.4,0,7.4l231.9,62.9c13.9,3.8,28.6,3.8,42.5,0l231.9-62.9
		c3.8-1,3.8-6.4,0-7.4L277.2,2.9C263.3-0.8,248.8-0.8,234.9,2.9L234.9,2.9z"/>
	<path class="st3" d="M269.3,47.8c-1.7-6.3-8.3-10-14.6-8.3L60.9,95.8c-19.1,5.2-32.5,22.7-32.5,42.5v45.1c0,6.6,5.3,11.9,11.9,11.9
		c4.7,0,11.8-3.2,11.8-11.9v-45.1c0-9.2,6.2-17.3,15.1-19.7L261,62.4C267.3,60.6,271,54.1,269.3,47.8z"/>
	<path class="st0" d="M273.8,56c0,9.8-35.4,9.8-35.4,0s7.9-17.7,17.7-17.7C265.8,38.2,273.8,46.2,273.8,56z"/>
	<path class="st3" d="M66.2,204.6c-15.4-38.5-22.2-38.5-25.4-38.5s-10,0-25.4,38.5c-6.8,16.9-13.8,38.2-13.8,44.5
		c0,7.6,10.7,9.7,14.7,10.4c6.5,1.2,15.2,1.9,24.4,1.9c26,0,39.2-4.2,39.2-12.4C80,242.8,73,221.5,66.2,204.6z"/>
</g>
</svg>
