<?xml version="1.0" encoding="utf-8"?>
<!-- Generator: Adobe Illustrator 26.0.1, SVG Export Plug-In . SVG Version: 6.00 Build 0)  -->
<svg version="1.1" id="Layer_1" xmlns:svgjs="http://svgjs.com/svgjs"
	 xmlns="http://www.w3.org/2000/svg" xmlns:xlink="http://www.w3.org/1999/xlink" x="0px" y="0px" viewBox="0 0 512 512"
	 style="enable-background:new 0 0 512 512;" xml:space="preserve">
<style type="text/css">
	.st0{fill:#5D4037;}
	.st1{fill:#795548;}
	.st2{fill:#FFC107;}
</style>
<g>
	<g id="Briefcase">
		<path class="st0" d="M458.7,271.6H53.3c-5.9,0-10.7,4.8-10.7,10.7c0,0,0,0,0,0v176.4c0,17.7,14.3,32,32,32h362.7
			c17.7,0,32-14.3,32-32V282.2C469.3,276.4,464.6,271.6,458.7,271.6C458.7,271.6,458.7,271.6,458.7,271.6z"/>
		<path class="st0" d="M330.7,106.7H181.3c-5.9,0-10.7-4.8-10.7-10.7V32c0-5.9,4.8-10.7,10.7-10.7h149.3c5.9,0,10.7,4.8,10.7,10.7
			v64C341.3,101.9,336.6,106.7,330.7,106.7z M192,85.3h128V42.7H192V85.3z"/>
		<path class="st1" d="M480,85.3H32c-5.9,0-10.7,4.8-10.7,10.7v149.3c0,29.4,23.9,53.3,53.3,53.3h362.7c29.4,0,53.3-23.9,53.3-53.3
			V96C490.7,90.1,485.9,85.3,480,85.3z"/>
		<path class="st2" d="M138.7,234.7h42.7c5.9,0,10.7,4.8,10.7,10.7v85.3c0,5.9-4.8,10.7-10.7,10.7h-42.7c-5.9,0-10.7-4.8-10.7-10.7
			v-85.3C128,239.4,132.8,234.7,138.7,234.7z"/>
		<path class="st2" d="M330.7,234.7h42.7c5.9,0,10.7,4.8,10.7,10.7v85.3c0,5.9-4.8,10.7-10.7,10.7h-42.7c-5.9,0-10.7-4.8-10.7-10.7
			v-85.3C320,239.4,324.8,234.7,330.7,234.7z"/>
	</g>
</g>
</svg>
